<?xml version="1.0" encoding="utf-8"?>
<!-- Generator: Adobe Illustrator 23.0.1, SVG Export Plug-In . SVG Version: 6.00 Build 0)  -->
<svg version="1.1" id="Layer_1" xmlns="http://www.w3.org/2000/svg" xmlns:xlink="http://www.w3.org/1999/xlink" x="0px" y="0px"
	 viewBox="0 0 3000 3000" style="enable-background:new 0 0 3000 3000;" xml:space="preserve">
<style type="text/css">
	.st0{fill:#FFFFFF;}
	.st1{fill:url(#SVGID_1_);}
	.st2{fill:url(#SVGID_2_);}
	.st3{fill:url(#SVGID_3_);}
	.st4{fill:url(#SVGID_4_);}
	.st5{fill:url(#SVGID_5_);}
	.st6{fill:url(#SVGID_6_);}
	.st7{fill:url(#SVGID_7_);}
	.st8{fill:url(#SVGID_8_);}
	.st9{fill:url(#SVGID_9_);}
	.st10{fill:url(#SVGID_10_);}
	.st11{fill:url(#SVGID_11_);}
	.st12{fill:url(#SVGID_12_);}
	.st13{fill:url(#SVGID_13_);}
	.st14{fill:url(#SVGID_14_);}
	.st15{fill:url(#SVGID_15_);}
	.st16{fill:url(#SVGID_16_);}
	.st17{fill:url(#SVGID_17_);}
	.st18{fill:url(#SVGID_18_);}
	.st19{fill:url(#SVGID_19_);}
	.st20{fill:url(#SVGID_20_);}
	.st21{fill:url(#SVGID_21_);}
	.st22{fill:url(#SVGID_22_);}
	.st23{fill:url(#SVGID_23_);}
	.st24{fill:url(#SVGID_24_);}
	.st25{fill:url(#SVGID_25_);}
	.st26{fill:url(#SVGID_26_);}
	.st27{fill:url(#SVGID_27_);}
	.st28{fill:url(#SVGID_28_);}
	.st29{fill:url(#SVGID_29_);}
	.st30{fill:url(#SVGID_30_);}
	.st31{fill:#1F1D47;}
	.st32{fill:#333B94;}
</style>
<rect y="1500" class="st0" width="3000" height="1500"/>
<linearGradient id="SVGID_1_" gradientUnits="userSpaceOnUse" x1="134.6046" y1="1240.2714" x2="2958.1035" y2="226.4401">
	<stop  offset="2.033214e-07" style="stop-color:#1F1D47"/>
	<stop  offset="1" style="stop-color:#333995"/>
</linearGradient>
<rect class="st1" width="3000" height="1500"/>
<g>
	<g>
		<linearGradient id="SVGID_2_" gradientUnits="userSpaceOnUse" x1="-989.2432" y1="623.3679" x2="-166.3123" y2="623.3679">
			<stop  offset="2.033214e-07" style="stop-color:#1F1D47"/>
			<stop  offset="1" style="stop-color:#333995"/>
		</linearGradient>
		<path class="st2" d="M-456.98,541.77L-456.98,541.77l262.09-383.35l-217.13-0.93l-152.84,223.55L-712,161.8l-277.24-1.19
			l284.89,424.46l-98.01,143.36l29.95,20.46l-20.49,29.98l-29.95-20.47l-41,59.97l29.96,20.47l-20.5,29.99l-29.96-20.48l-41,59.96
			l29.97,20.48l-20.49,29.98l-29.98-20.48l-21.55,31.53l87.72,0.38l-6.2,9.08h0.01l-20.5,29.99l-29.9-20.44l-20.49,29.99
			l29.18,19.94l-20.49,29.98l29.98,20.5l20.5-29.99l-29.18-19.94l20.5-29.98l29.9,20.43l29.98,20.5l20.5-29.99l-29.99-20.49
			l-24.65-16.85l24.65,16.84l20.08-29.38l-43.86-0.18l14.29-20.91l-29.9-20.43l20.49-29.99l29.9,20.44l20.5-29.99l29.98,20.5
			l20.5-29.99l20.49-29.98l-29.9-20.44l-20.5,29.99l-29.98-20.5l20.49-29.98l29.91,20.43l20.49-29.98l29.98,20.49l-20.49,29.99
			l29.99,20.49l-20.5,29.99l-20.49,29.98l-29.99-20.49l-20.49,29.98l-29.91-20.43l-20.49,29.98l29.9,20.44l-0.41,0.6l85.54,0.37
			l75.84-110.92l-29.99-20.49l20.5-29.99l29.98,20.5l57.48-84.06l152.92,227.85l277.25,1.19L-456.98,541.77z M-556.97,688.02
			l-107.88-160.73l-202.13-301.16l120.22,0.52l142.41,212.16l0,0l0,0l107.87,160.73l0,0l0,0l207.91,309.77l-120.22-0.52
			L-556.97,688.02z"/>
	</g>
</g>
<g>
	<g>
		<path class="st0" d="M-456.98,1680.96L-456.98,1680.96l262.09-383.35l-217.13-0.93l-152.84,223.55L-712,1300.98l-277.24-1.19
			l284.89,424.46l-98.01,143.36l29.95,20.46l-20.49,29.98l-29.95-20.47l-41,59.97l29.96,20.47l-20.5,29.99l-29.96-20.48l-41,59.96
			l29.97,20.48l-20.49,29.98l-29.98-20.48l-21.55,31.53l87.72,0.38l-6.2,9.08h0.01l-20.5,29.99l-29.9-20.44l-20.49,29.99
			l29.18,19.94l-20.49,29.98l29.98,20.5l20.5-29.99l-29.18-19.94l20.5-29.98l29.9,20.43l29.98,20.5l20.5-29.99l-29.99-20.49
			l-24.65-16.85l24.65,16.84l20.08-29.38l-43.86-0.18l14.29-20.91l-29.9-20.43l20.49-29.99l29.9,20.44l20.5-29.99l29.98,20.5
			l20.5-29.99l20.49-29.98l-29.9-20.44l-20.5,29.99l-29.98-20.5l20.49-29.98l29.91,20.43l20.49-29.98l29.98,20.49l-20.49,29.99
			l29.99,20.49l-20.5,29.99l-20.49,29.98l-29.99-20.49l-20.49,29.98l-29.91-20.43l-20.49,29.98l29.9,20.44l-0.41,0.6l85.54,0.37
			l75.84-110.92l-29.99-20.49l20.5-29.99l29.98,20.5l57.48-84.06l152.92,227.85l277.25,1.19L-456.98,1680.96z M-556.97,1827.21
			l-107.88-160.73l-202.13-301.16l120.22,0.52L-604.36,1578l0,0l0,0l107.87,160.73l0,0l0,0l207.91,309.77l-120.22-0.52
			L-556.97,1827.21z"/>
	</g>
</g>
<linearGradient id="SVGID_3_" gradientUnits="userSpaceOnUse" x1="-2019.2847" y1="260.3501" x2="-1400.7212" y2="798.687">
	<stop  offset="0.2675" style="stop-color:#C2479A"/>
	<stop  offset="0.3632" style="stop-color:#A1459A"/>
	<stop  offset="0.4724" style="stop-color:#81439A"/>
	<stop  offset="0.5822" style="stop-color:#65429A"/>
	<stop  offset="0.6906" style="stop-color:#4C419A"/>
	<stop  offset="0.7973" style="stop-color:#37409A"/>
	<stop  offset="0.9014" style="stop-color:#27409A"/>
	<stop  offset="1" style="stop-color:#21409A"/>
</linearGradient>
<path class="st3" d="M-1257.79,960.56l-173.79-255.24l-92.48-135.81l-1.65-2.42l0.1-0.14l0,0h0.01l-0.01-0.01l19.05-28.36
	l146.74-218.36l-0.05,0l81.72-121.65c12.2-18.17-0.88-42.59-22.76-42.5l-214.65,0.84c-9.05,0.04-17.5,4.56-22.54,12.07l-31.43,46.78
	l0-0.14l-94.76,141.06l-2.23,3.32l-2.45-3.61l-132.48-194.56c-1.96-2.89-5.23-4.61-8.72-4.6l-255.27,0.61
	c-8.44,0.02-13.42,9.47-8.67,16.44l98.43,144.56l-0.2,0l169.65,249.15l-247.79,368.9c-12.21,18.16,0.87,42.58,22.76,42.49
	l214.65-0.84c9.05-0.04,17.49-4.55,22.54-12.06l128.74-191.59l2.42,3.55l132.48,194.56c1.96,2.89,5.23,4.61,8.72,4.6l255.27-0.61
	C-1258.02,976.98-1253.04,967.53-1257.79,960.56z M-1390.69,911.49l-96.28,0.23c-3.49,0.01-6.76-1.71-8.72-4.59l-127.92-187.84
	l-2.2-3.23l-12.35-18.14l-88.84-130.5l0.19,0l-27.57-40.49l-12.22-17.94l-1.92-2.82l-181.37-266.36
	c-4.75-6.97,0.23-16.42,8.67-16.44l96.28-0.24c3.49-0.01,6.76,1.72,8.72,4.6l61.74,90.66l-0.19,0l68.51,100.62l0.68,1l17.65,25.91
	l110.3,162l12.27,18.02l1.87,2.74l181.37,266.36C-1377.27,902.02-1382.25,911.47-1390.69,911.49z"/>
<path class="st0" d="M-1257.79,2065.69l-173.79-255.24l-92.48-135.81l-1.65-2.42l0.1-0.14l0,0h0.01l-0.01-0.01l19.05-28.36
	l146.74-218.36l-0.05,0l81.72-121.65c12.2-18.17-0.88-42.59-22.76-42.5l-214.65,0.84c-9.05,0.04-17.5,4.56-22.54,12.07l-31.43,46.78
	l0-0.14l-94.76,141.06l-2.23,3.32l-2.45-3.61l-132.48-194.56c-1.96-2.89-5.23-4.61-8.72-4.6l-255.27,0.61
	c-8.44,0.02-13.42,9.47-8.67,16.44l98.43,144.56l-0.2,0l169.65,249.15l-247.79,368.9c-12.21,18.16,0.87,42.58,22.76,42.49
	l214.65-0.84c9.05-0.04,17.49-4.55,22.54-12.06l128.74-191.59l2.42,3.55l132.48,194.56c1.96,2.89,5.23,4.61,8.72,4.6l255.27-0.61
	C-1258.02,2082.11-1253.04,2072.66-1257.79,2065.69z M-1390.69,2016.62l-96.28,0.23c-3.49,0.01-6.76-1.71-8.72-4.59l-127.92-187.84
	l-2.2-3.23l-12.35-18.14l-88.84-130.5l0.19,0l-27.57-40.49l-12.22-17.94l-1.92-2.82l-181.37-266.36
	c-4.75-6.97,0.23-16.42,8.67-16.44l96.28-0.24c3.49-0.01,6.76,1.72,8.72,4.6l61.74,90.66l-0.19,0l68.51,100.62l0.68,1l17.65,25.91
	l110.3,162l12.27,18.02l1.87,2.74l181.37,266.36C-1377.27,2007.15-1382.25,2016.6-1390.69,2016.62z"/>
<g>
	<linearGradient id="SVGID_4_" gradientUnits="userSpaceOnUse" x1="-2883.387" y1="272.0909" x2="-2470.2874" y2="272.0909">
		<stop  offset="0" style="stop-color:#C2479A"/>
		<stop  offset="1" style="stop-color:#3F56A6"/>
	</linearGradient>
	<path class="st4" d="M-2734.57,469.36l0.02,0.03l263.29-386.82c2.48-3.65-0.12-8.59-4.54-8.6l0.3-0.43l-62.71-0.14l0.08-0.11
		l-217.19-0.47c-3.52-0.01-6.82,1.73-8.8,4.64l-119.27,175.22l5.15,7.65l137.14,203.42l5.15,7.64L-2734.57,469.36z"/>
	<linearGradient id="SVGID_5_" gradientUnits="userSpaceOnUse" x1="-2983.2886" y1="585.672" x2="-2638.574" y2="585.672">
		<stop  offset="0" style="stop-color:#C2479A"/>
		<stop  offset="1" style="stop-color:#3F56A6"/>
	</linearGradient>
	<path class="st5" d="M-2670.73,796.95l-4.52-0.03c-3.51-0.02-6.78-1.77-8.74-4.68l-277.32-411.45c2.28-3.82,2.31-8.76-0.34-12.69
		c-3.66-5.41-11.01-6.84-16.43-3.18c-5.41,3.66-6.84,11.01-3.18,16.43c2.35,3.47,6.21,5.29,10.11,5.19l281.09,417.03
		c1.96,2.91,5.23,4.66,8.73,4.68l32.06,0.2c8.53,0.05,13.63-9.47,8.87-16.54l-48.01-71.24c1.76-3.67,1.59-8.14-0.85-11.75
		c-3.66-5.41-11.01-6.84-16.43-3.18c-5.41,3.66-6.84,11.01-3.18,16.43c2.56,3.79,6.94,5.62,11.2,5.12l35.8,53.12
		C-2657.1,787.48-2662.2,797-2670.73,796.95z"/>
	<linearGradient id="SVGID_6_" gradientUnits="userSpaceOnUse" x1="-3165.1592" y1="494.3578" x2="-2511.8655" y2="494.3578">
		<stop  offset="0" style="stop-color:#C2479A"/>
		<stop  offset="1" style="stop-color:#3F56A6"/>
	</linearGradient>
	<path class="st6" d="M-3153.59,234.09l431.24,638.08c1.99,2.94,5.31,4.69,8.85,4.67l191.06-1.12c8.48-0.05,13.48-9.53,8.73-16.55
		l-493.16-729.69c2.1-3.77,2.07-8.56-0.52-12.39c-3.66-5.41-11.01-6.84-16.43-3.18c-5.41,3.66-6.84,11.01-3.18,16.43
		c2.42,3.58,6.45,5.4,10.48,5.17l481.48,712.41c4.75,7.02-0.25,16.51-8.73,16.55l-163.73,0.95c-3.55,0.02-6.87-1.73-8.85-4.67
		l-427.12-631.97c2.55-3.87,2.69-9.06-0.07-13.14c-3.66-5.41-11.01-6.84-16.43-3.18c-5.41,3.66-6.84,11.01-3.18,16.43
		C-3160.9,232.19-3157.29,234-3153.59,234.09z"/>
	<linearGradient id="SVGID_7_" gradientUnits="userSpaceOnUse" x1="-3173.3496" y1="468.3773" x2="-2717.801" y2="468.3773">
		<stop  offset="0" style="stop-color:#C2479A"/>
		<stop  offset="1" style="stop-color:#3F56A6"/>
	</linearGradient>
	<path class="st7" d="M-2826.07,457.02l-216.38-320.94c-1.97-2.92-5.26-4.67-8.78-4.68l-111.47-0.25
		c-8.51-0.02-13.58,9.49-8.82,16.54l431.63,640.22c-2.16,3.79-2.15,8.63,0.46,12.49c3.66,5.41,11.01,6.84,16.43,3.18
		s6.84-11.01,3.18-16.43c-2.39-3.54-6.37-5.36-10.35-5.18l-419.92-622.86c-4.76-7.06,0.31-16.56,8.82-16.54l84,0.19
		c3.52,0.01,6.81,1.76,8.78,4.68l213.15,316.15c-1.79,3.68-1.63,8.18,0.82,11.81c3.66,5.41,11.01,6.84,16.43,3.18
		c5.41-3.66,6.84-11.01,3.18-16.43C-2817.49,458.37-2821.84,456.54-2826.07,457.02z"/>
	<linearGradient id="SVGID_8_" gradientUnits="userSpaceOnUse" x1="-3114.1111" y1="380.51" x2="-2776.9719" y2="380.51">
		<stop  offset="0" style="stop-color:#C2479A"/>
		<stop  offset="1" style="stop-color:#3F56A6"/>
	</linearGradient>
	<path class="st8" d="M-2789.32,570.96l-270.98-402.03c-1.08-1.59-2.88-2.53-4.8-2.51l-43.38,0.58c-4.53,0.06-7.19,5.13-4.65,8.89
		l50.23,74.52c-1.65,3.63-1.45,7.99,0.95,11.54c3.66,5.41,11.01,6.84,16.43,3.18s6.84-11.01,3.18-16.43
		c-2.61-3.86-7.1-5.68-11.42-5.08l-38.17-56.64c-2.53-3.76,0.12-8.83,4.65-8.89l16.2-0.22c1.92-0.03,3.73,0.92,4.8,2.51
		l267.24,396.49c-2.18,3.79-2.17,8.65,0.44,12.52c3.66,5.41,11.01,6.84,16.43,3.18s6.84-11.01,3.18-16.43
		C-2781.39,572.61-2785.35,570.79-2789.32,570.96z"/>
	<linearGradient id="SVGID_9_" gradientUnits="userSpaceOnUse" x1="-3324.7056" y1="486.7419" x2="-2450.0164" y2="486.7419">
		<stop  offset="0" style="stop-color:#C2479A"/>
		<stop  offset="1" style="stop-color:#3F56A6"/>
	</linearGradient>
	<path class="st9" d="M-2451.85,892.77l-289.24-429.04l-54.27-80.49l-0.23,0.15l-99.77-147.99l-11.15-16.53
		c1.79-3.68,1.63-8.17-0.83-11.8c-2.38-3.53-6.33-5.35-10.3-5.18l-90.74-134.62c-1.06-1.56-2.82-2.49-4.7-2.49l-275.24-0.62
		c-8.51-0.02-13.58,9.49-8.82,16.54l264.1,391.72l-28.21,41.44l-262.55,385.74c-2.38,3.5,0.12,8.23,4.35,8.24l-0.23,0.33l222.81,0.5
		l0.08-0.11l57.13,0.12c3.52,0.01,6.82-1.73,8.8-4.64l145.09-213.16l34.13,50.62c-1.79,3.68-1.63,8.18,0.82,11.81
		c3.66,5.41,11.01,6.84,16.43,3.18c5.41-3.66,6.84-11.01,3.18-16.43c-2.55-3.78-6.91-5.6-11.14-5.12l-36.52-54.17l-142.33-211.11
		l-254.53-377.53c-4.76-7.06,0.31-16.56,8.82-16.54l247.76,0.55c1.89,0,3.65,0.94,4.71,2.51l55.61,82.49l-0.23,0.16l31.53,46.76
		c-2.04,3.76-1.97,8.49,0.59,12.27c2.55,3.78,6.91,5.6,11.14,5.12l117.67,174.54h0.33l324.53,481.37
		c4.76,7.06-0.31,16.56-8.82,16.54l-247.76-0.55c-1.88,0-3.64-0.94-4.7-2.5l-15.52-23.03c1.8-3.68,1.64-8.19-0.81-11.83
		c-3.66-5.41-11.01-6.84-16.43-3.18c-5.41,3.66-6.84,11.01-3.18,16.43c2.55,3.77,6.89,5.6,11.12,5.13l18.76,27.83
		c1.05,1.56,2.81,2.5,4.7,2.51l275.22,0.62C-2452.16,909.34-2447.09,899.83-2451.85,892.77z"/>
</g>
<g>
	<path class="st0" d="M-2714.29,1655.47l0.02,0.03l263.29-386.82c2.48-3.65-0.12-8.59-4.54-8.6l0.3-0.43l-62.71-0.14l0.08-0.11
		l-217.19-0.47c-3.52-0.01-6.82,1.73-8.8,4.64l-119.27,175.22l5.15,7.65l137.14,203.42l5.15,7.64L-2714.29,1655.47z"/>
	<path class="st0" d="M-2650.46,1983.06l-4.52-0.03c-3.51-0.02-6.78-1.77-8.74-4.68l-277.32-411.45c2.28-3.82,2.31-8.76-0.34-12.69
		c-3.66-5.41-11.01-6.84-16.43-3.18s-6.84,11.01-3.18,16.43c2.35,3.47,6.21,5.29,10.11,5.19l281.09,417.03
		c1.96,2.91,5.23,4.66,8.73,4.68l32.06,0.2c8.53,0.05,13.63-9.47,8.87-16.54l-48.01-71.24c1.76-3.67,1.59-8.14-0.85-11.75
		c-3.66-5.41-11.01-6.84-16.43-3.18s-6.84,11.01-3.18,16.43c2.56,3.79,6.94,5.62,11.2,5.12l35.8,53.12
		C-2636.83,1973.59-2641.93,1983.11-2650.46,1983.06z"/>
	<path class="st0" d="M-3133.32,1420.2l431.24,638.08c1.99,2.94,5.31,4.69,8.85,4.67l191.06-1.12c8.48-0.05,13.48-9.53,8.73-16.55
		l-493.16-729.69c2.1-3.77,2.07-8.56-0.52-12.39c-3.66-5.41-11.01-6.84-16.43-3.18c-5.41,3.66-6.84,11.01-3.18,16.43
		c2.42,3.58,6.45,5.4,10.48,5.17l481.48,712.41c4.75,7.02-0.25,16.51-8.73,16.55l-163.73,0.95c-3.55,0.02-6.87-1.73-8.85-4.67
		l-427.12-631.97c2.55-3.87,2.69-9.06-0.07-13.14c-3.66-5.41-11.01-6.84-16.43-3.18c-5.41,3.66-6.84,11.01-3.18,16.43
		C-3140.63,1418.3-3137.02,1420.11-3133.32,1420.2z"/>
	<path class="st0" d="M-2805.8,1643.13l-216.38-320.94c-1.97-2.92-5.26-4.67-8.78-4.68l-111.47-0.25
		c-8.51-0.02-13.58,9.49-8.82,16.54l431.63,640.22c-2.16,3.79-2.15,8.63,0.46,12.49c3.66,5.41,11.01,6.84,16.43,3.18
		c5.41-3.66,6.84-11.01,3.18-16.43c-2.39-3.54-6.37-5.36-10.35-5.18l-419.92-622.86c-4.76-7.06,0.31-16.56,8.82-16.54l84,0.19
		c3.52,0.01,6.81,1.76,8.78,4.68l213.15,316.15c-1.79,3.68-1.63,8.18,0.82,11.81c3.66,5.41,11.01,6.84,16.43,3.18
		c5.41-3.66,6.84-11.01,3.18-16.43C-2797.22,1644.48-2801.56,1642.66-2805.8,1643.13z"/>
	<path class="st0" d="M-2769.05,1757.07l-270.98-402.03c-1.08-1.59-2.88-2.53-4.8-2.51l-43.38,0.58c-4.53,0.06-7.19,5.13-4.65,8.89
		l50.23,74.52c-1.65,3.63-1.45,7.99,0.95,11.54c3.66,5.41,11.01,6.84,16.43,3.18c5.41-3.66,6.84-11.01,3.18-16.43
		c-2.61-3.86-7.1-5.68-11.42-5.08l-38.17-56.64c-2.53-3.76,0.12-8.83,4.65-8.89l16.2-0.22c1.92-0.03,3.73,0.92,4.8,2.51
		l267.24,396.49c-2.18,3.79-2.17,8.65,0.44,12.52c3.66,5.41,11.01,6.84,16.43,3.18s6.84-11.01,3.18-16.43
		C-2761.12,1758.72-2765.08,1756.91-2769.05,1757.07z"/>
	<path class="st0" d="M-2431.58,2078.89l-289.24-429.04l-54.27-80.49l-0.23,0.15l-99.77-147.99l-11.15-16.54
		c1.79-3.68,1.63-8.17-0.83-11.8c-2.38-3.53-6.33-5.35-10.3-5.18l-90.74-134.62c-1.06-1.56-2.82-2.49-4.7-2.49l-275.24-0.62
		c-8.51-0.02-13.58,9.49-8.82,16.54l264.1,391.72l-28.21,41.44l-262.55,385.74c-2.38,3.5,0.12,8.23,4.35,8.24l-0.23,0.33l222.81,0.5
		l0.08-0.11l57.13,0.12c3.52,0.01,6.82-1.73,8.8-4.64l145.09-213.16l34.13,50.62c-1.79,3.68-1.63,8.18,0.82,11.81
		c3.66,5.41,11.01,6.84,16.43,3.18c5.41-3.66,6.84-11.01,3.18-16.43c-2.55-3.78-6.91-5.6-11.14-5.12l-36.52-54.17l-142.33-211.11
		l-254.53-377.53c-4.76-7.06,0.31-16.56,8.82-16.54l247.76,0.55c1.89,0,3.65,0.94,4.71,2.51l55.61,82.49l-0.23,0.16l31.53,46.76
		c-2.04,3.76-1.97,8.49,0.59,12.27c2.55,3.78,6.91,5.6,11.14,5.12l117.67,174.54h0.33l324.53,481.37
		c4.76,7.06-0.31,16.56-8.82,16.54l-247.76-0.55c-1.88,0-3.64-0.94-4.69-2.5l-15.52-23.03c1.8-3.68,1.64-8.19-0.81-11.83
		c-3.66-5.41-11.01-6.84-16.43-3.18c-5.41,3.66-6.84,11.01-3.18,16.43c2.55,3.77,6.89,5.6,11.12,5.13l18.76,27.83
		c1.05,1.56,2.81,2.5,4.7,2.51l275.22,0.62C-2431.89,2095.45-2426.82,2085.94-2431.58,2078.89z"/>
</g>
<g>
	<linearGradient id="SVGID_10_" gradientUnits="userSpaceOnUse" x1="3719.762" y1="1224.1017" x2="4321.6147" y2="1224.1017">
		<stop  offset="1.118836e-07" style="stop-color:#F05437"/>
		<stop  offset="1" style="stop-color:#DD2276"/>
	</linearGradient>
	<path class="st10" d="M3723.14,801.07l569.51,845.65c-3.03,5.04-3.08,11.59,0.43,16.78c4.83,7.14,14.53,9.02,21.67,4.19
		s9.02-14.53,4.19-21.67c-3.09-4.57-8.16-6.97-13.29-6.85l-565.5-839.71c-1.91-2.83,0.12-6.64,3.53-6.63l134.37,0.37
		c1.41,0.01,2.72,0.71,3.51,1.88l44.66,66.31c-2.62,4.93-2.5,11.11,0.85,16.07c4.83,7.14,14.53,9.02,21.67,4.19
		c7.14-4.83,9.02-14.53,4.19-21.67c-3.26-4.83-8.75-7.24-14.17-6.81l-46.31-68.78c-2.6-3.85-6.93-6.17-11.58-6.18l-138.42-0.38
		l-8.62-0.02c-11.23-0.03-17.92,12.51-11.64,21.82L3723.14,801.07z"/>
	<linearGradient id="SVGID_11_" gradientUnits="userSpaceOnUse" x1="3873.8652" y1="1304.1527" x2="4424.1313" y2="1304.1527">
		<stop  offset="1.118836e-07" style="stop-color:#F05437"/>
		<stop  offset="1" style="stop-color:#DD2276"/>
	</linearGradient>
	<path class="st11" d="M3889.56,969.69l469.15,696.82c1.4,2.08,3.73,3.31,6.23,3.31h0.09l45.26-0.58
		c11.13-0.14,17.65-12.58,11.43-21.82l-81.87-121.6c2.38-4.86,2.18-10.82-1.06-15.62c-4.83-7.14-14.53-9.02-21.67-4.19
		s-9.02,14.53-4.19,21.67c3.36,4.97,9.08,7.38,14.65,6.77l76.28,113.3c1.89,2.8-0.09,6.58-3.47,6.62l-29.19,0.38
		c-1.44,0.02-2.78-0.69-3.58-1.88l-464.9-690.52c3.16-5.07,3.26-11.73-0.3-16.99c-4.83-7.14-14.53-9.02-21.67-4.19
		c-7.14,4.83-9.02,14.53-4.19,21.67C3879.57,967.31,3884.53,969.72,3889.56,969.69z"/>
	<g>
		<linearGradient id="SVGID_12_" gradientUnits="userSpaceOnUse" x1="3678.2771" y1="1287.1198" x2="4591.6411" y2="1287.1198">
			<stop  offset="1.118836e-07" style="stop-color:#F05437"/>
			<stop  offset="1" style="stop-color:#DD2276"/>
		</linearGradient>
		<path class="st12" d="M4394.7,1453.02c2.25-4.81,2.01-10.64-1.18-15.36c-4.83-7.14-14.53-9.02-21.67-4.19s-9.02,14.53-4.19,21.67
			c3.41,5.05,9.26,7.45,14.91,6.73l188.64,279.41c1.91,2.84-0.14,6.66-3.56,6.63l-241.75-2.12c-1.39-0.01-2.7-0.71-3.48-1.87
			l-614.51-910.24c2.35-4.85,2.14-10.77-1.09-15.56c-4.83-7.14-14.53-9.02-21.67-4.19c-7.14,4.83-9.02,14.53-4.19,21.67
			c3.37,4.99,9.12,7.4,14.71,6.76l617.78,915.07c0.69,1.03,1.61,1.85,2.66,2.41c1.06,0.57,2.24,0.88,3.48,0.89l257.91,2.27
			c11.27,0.1,18.03-12.49,11.72-21.84L4394.7,1453.02z"/>
		<linearGradient id="SVGID_13_" gradientUnits="userSpaceOnUse" x1="3801.7852" y1="1149.7883" x2="4303.3511" y2="1149.7883">
			<stop  offset="1.118836e-07" style="stop-color:#F05437"/>
			<stop  offset="1" style="stop-color:#DD2276"/>
		</linearGradient>
		<path class="st13" d="M3836.44,892.27c-2.82,4.99-2.78,11.34,0.64,16.41c4.83,7.14,14.53,9.02,21.67,4.19
			c7.14-4.83,9.02-14.53,4.19-21.67c-3.17-4.7-8.46-7.1-13.73-6.83l-27.01-40.12c-1.91-2.84,0.13-6.65,3.55-6.63l29.58,0.2
			c1.4,0.01,2.71,0.72,3.49,1.88l414.53,615.69c-1.95,4.69-1.59,10.23,1.46,14.75c4.83,7.14,14.53,9.02,21.67,4.19
			s9.02-14.53,4.19-21.67c-3.54-5.24-9.7-7.63-15.54-6.64L3867.8,826.18c-1.38-2.06-3.69-3.3-6.17-3.32l-45.72-0.3
			c-11.26-0.08-18,12.48-11.71,21.82L3836.44,892.27z"/>
		<linearGradient id="SVGID_14_" gradientUnits="userSpaceOnUse" x1="3515.615" y1="1242.5721" x2="4669.5225" y2="1242.5721">
			<stop  offset="1.118836e-07" style="stop-color:#F05437"/>
			<stop  offset="1" style="stop-color:#DD2276"/>
		</linearGradient>
		<path class="st14" d="M4667.11,1778.22l-374.1-554.9l347.33-510.29c0.31-0.46,0.54-0.93,0.73-1.41l9.28-13.63
			c3.28-4.82-0.16-11.34-5.99-11.35h0l0.39-0.57l-82.73-0.19l0.1-0.15l-286.52-0.62c-4.64-0.01-8.99,2.28-11.6,6.12l-157.34,231.15
			l0.11,0.17l-8.33,12.24l-40.39-59.9l0.03-0.02L3932.93,689.2c-1.4-2.05-3.71-3.28-6.2-3.29l-363.1-0.81
			c-11.23-0.03-17.92,12.52-11.64,21.83l348.41,516.77l-37.22,54.67l-346.36,508.87c-3.14,4.61,0.16,10.86,5.74,10.88l-0.3,0.44
			l293.94,0.66l0.11-0.15l75.36,0.16c4.64,0.01,8.99-2.28,11.6-6.12l191.41-281.21l52.58,77.98l0.1-0.06l104.47,154.96l-0.1,0.07
			l34.44,51.09c1.39,2.06,3.71,3.3,6.2,3.31l363.08,0.81C4666.7,1800.07,4673.38,1787.53,4667.11,1778.22z M4649.35,1785.03
			l-348.97-0.78c-2.48-0.01-4.81-1.24-6.19-3.3l-4.93-7.31h0.15l-237.11-351.71l-71.59-106.18l-0.11,0.07l-64.57-95.77
			L3571.75,709.4c-2.67-3.95,0.17-9.28,4.94-9.27l333.63,0.74c7.75,0.02,14.99,3.88,19.33,10.31l85.53,126.85l-0.04,0.03
			l331.58,491.82h0.05l304.47,451.62C4652.25,1783.01,4651.17,1785.04,4649.35,1785.03z"/>
		<linearGradient id="SVGID_15_" gradientUnits="userSpaceOnUse" x1="3974.4473" y1="1325.7081" x2="4506.8281" y2="1325.7081">
			<stop  offset="1.118836e-07" style="stop-color:#F05437"/>
			<stop  offset="1" style="stop-color:#DD2276"/>
		</linearGradient>
		<path class="st15" d="M3991.17,959.35l495.27,735.42c1.91,2.83-0.12,6.64-3.53,6.63l-91.73-0.25c-0.35-0.77-0.76-1.53-1.25-2.26
			c-4.83-7.14-14.53-9.02-21.67-4.19s-9.02,14.53-4.19,21.67s14.53,9.02,21.67,4.19c1.78-1.21,3.24-2.72,4.35-4.42l102.68,0.28
			c11.22,0.03,17.92-12.51,11.65-21.82l-500.64-743.39c2.67-4.95,2.57-11.17-0.79-16.15c-4.83-7.14-14.53-9.02-21.67-4.19
			c-7.14,4.83-9.02,14.53-4.19,21.67C3980.36,957.32,3985.79,959.73,3991.17,959.35z"/>
	</g>
	<linearGradient id="SVGID_16_" gradientUnits="userSpaceOnUse" x1="3720.061" y1="1053.7423" x2="4342.5708" y2="1053.7423">
		<stop  offset="1.118836e-07" style="stop-color:#F05437"/>
		<stop  offset="1" style="stop-color:#DD2276"/>
	</linearGradient>
	<path class="st16" d="M3744.41,753.6c2.11-1.43,3.75-3.29,4.91-5.38l149.63-0.8c1.42-0.01,2.75,0.7,3.54,1.87l411.28,609.2
		c-3.2,5.08-3.32,11.78,0.26,17.07c4.83,7.14,14.53,9.02,21.67,4.19c7.14-4.83,9.02-14.53,4.19-21.67
		c-3.01-4.46-7.92-6.86-12.93-6.87l-413.62-612.65c-2.62-3.88-7-6.19-11.68-6.17l-152.3,0.82c-0.24-0.43-0.49-0.86-0.77-1.28
		c-4.83-7.14-14.53-9.02-21.67-4.19c-7.14,4.83-9.02,14.53-4.19,21.67C3727.56,756.55,3737.27,758.42,3744.41,753.6z"/>
</g>
<g>
	<linearGradient id="SVGID_17_" gradientUnits="userSpaceOnUse" x1="-4293.7285" y1="1837.6936" x2="-3804.0132" y2="1837.6936">
		<stop  offset="2.033214e-07" style="stop-color:#1F1D47"/>
		<stop  offset="1" style="stop-color:#333995"/>
	</linearGradient>
	<path class="st17" d="M-4290.98,1493.48l463.4,688.09c-2.47,4.1-2.51,9.43,0.35,13.66c3.93,5.81,11.82,7.34,17.63,3.41
		c5.81-3.93,7.34-11.82,3.41-17.63c-2.51-3.71-6.64-5.67-10.81-5.58l-460.13-683.25c-1.55-2.3,0.1-5.4,2.87-5.39l109.33,0.3
		c1.15,0.01,2.21,0.58,2.86,1.53l36.34,53.95c-2.13,4.02-2.04,9.04,0.69,13.07c3.93,5.81,11.82,7.34,17.63,3.41
		c5.81-3.93,7.34-11.82,3.41-17.63c-2.65-3.93-7.12-5.89-11.53-5.54l-37.68-55.96c-2.12-3.13-5.64-5.02-9.42-5.03l-112.63-0.31
		l-7.01-0.02c-9.14-0.02-14.58,10.18-9.47,17.75L-4290.98,1493.48z"/>
	<linearGradient id="SVGID_18_" gradientUnits="userSpaceOnUse" x1="-4168.3374" y1="1902.8295" x2="-3720.5977" y2="1902.8295">
		<stop  offset="2.033214e-07" style="stop-color:#1F1D47"/>
		<stop  offset="1" style="stop-color:#333995"/>
	</linearGradient>
	<path class="st18" d="M-4155.56,1630.69l381.73,566.99c1.14,1.69,3.03,2.69,5.07,2.69h0.07l36.83-0.47
		c9.06-0.11,14.36-10.24,9.3-17.75l-66.62-98.94c1.94-3.95,1.78-8.8-0.87-12.71c-3.93-5.81-11.82-7.34-17.63-3.41
		c-5.81,3.93-7.34,11.82-3.41,17.63c2.73,4.04,7.39,6.01,11.92,5.51l62.07,92.19c1.54,2.28-0.07,5.35-2.82,5.39l-23.75,0.31
		c-1.17,0.02-2.26-0.56-2.91-1.53l-378.28-561.86c2.57-4.13,2.65-9.54-0.25-13.83c-3.93-5.81-11.82-7.34-17.63-3.41
		c-5.81,3.93-7.34,11.82-3.41,17.63C-4163.69,1628.75-4159.66,1630.71-4155.56,1630.69z"/>
	<g>
		<linearGradient id="SVGID_19_" gradientUnits="userSpaceOnUse" x1="-4327.4839" y1="1888.9701" x2="-3584.2983" y2="1888.9701">
			<stop  offset="2.033214e-07" style="stop-color:#1F1D47"/>
			<stop  offset="1" style="stop-color:#333995"/>
		</linearGradient>
		<path class="st19" d="M-3744.55,2023.96c1.83-3.91,1.63-8.66-0.96-12.5c-3.93-5.81-11.82-7.34-17.63-3.41
			c-5.81,3.93-7.34,11.82-3.41,17.63c2.78,4.11,7.53,6.06,12.14,5.47l153.49,227.35c1.55,2.31-0.11,5.42-2.9,5.4l-196.71-1.73
			c-1.13-0.01-2.2-0.58-2.83-1.52l-500.01-740.64c1.91-3.94,1.74-8.77-0.89-12.66c-3.93-5.81-11.82-7.34-17.63-3.41
			c-5.81,3.93-7.34,11.82-3.41,17.63c2.74,4.06,7.42,6.02,11.97,5.5l502.68,744.57c0.56,0.84,1.31,1.51,2.16,1.96
			c0.86,0.46,1.82,0.72,2.83,0.72l209.86,1.85c9.17,0.08,14.67-10.16,9.54-17.77L-3744.55,2023.96z"/>
		<linearGradient id="SVGID_20_" gradientUnits="userSpaceOnUse" x1="-4226.9878" y1="1777.2264" x2="-3818.8738" y2="1777.2264">
			<stop  offset="2.033214e-07" style="stop-color:#1F1D47"/>
			<stop  offset="1" style="stop-color:#333995"/>
		</linearGradient>
		<path class="st20" d="M-4198.79,1567.69c-2.29,4.06-2.26,9.23,0.52,13.36c3.93,5.81,11.82,7.34,17.63,3.41
			c5.81-3.93,7.34-11.82,3.41-17.63c-2.58-3.82-6.88-5.78-11.17-5.56l-21.98-32.64c-1.55-2.31,0.11-5.41,2.89-5.39l24.07,0.16
			c1.14,0.01,2.21,0.59,2.84,1.53l337.29,500.98c-1.59,3.81-1.29,8.32,1.19,12c3.93,5.81,11.82,7.34,17.63,3.41
			s7.34-11.82,3.41-17.63c-2.88-4.26-7.89-6.21-12.65-5.4l-339.57-504.36c-1.12-1.68-3-2.69-5.02-2.7l-37.2-0.24
			c-9.16-0.07-14.65,10.15-9.53,17.75L-4198.79,1567.69z"/>
		<linearGradient id="SVGID_21_" gradientUnits="userSpaceOnUse" x1="-4459.8384" y1="1852.7227" x2="-3520.9277" y2="1852.7227">
			<stop  offset="2.033214e-07" style="stop-color:#1F1D47"/>
			<stop  offset="1" style="stop-color:#333995"/>
		</linearGradient>
		<path class="st21" d="M-3522.89,2288.57l-304.4-451.51l282.62-415.21c0.25-0.37,0.44-0.76,0.6-1.15l7.55-11.09
			c2.67-3.92-0.13-9.22-4.87-9.24h0l0.32-0.46l-67.32-0.15l0.08-0.12l-233.14-0.51c-3.78-0.01-7.32,1.86-9.44,4.98l-128.03,188.08
			l0.09,0.13l-6.78,9.96l-32.86-48.74l0.03-0.02l-101.83-151.07c-1.14-1.67-3.02-2.67-5.04-2.68l-295.45-0.66
			c-9.14-0.02-14.58,10.18-9.47,17.76l283.49,420.48l-30.28,44.48l-281.82,414.06c-2.56,3.75,0.13,8.84,4.67,8.85l-0.24,0.36
			l239.17,0.54l0.09-0.12l61.32,0.13c3.78,0.01,7.32-1.86,9.44-4.98l155.75-228.82l42.78,63.45l0.08-0.05l85.01,126.09l-0.08,0.05
			l28.02,41.57c1.13,1.68,3.02,2.69,5.04,2.69l295.43,0.66C-3523.23,2306.35-3517.79,2296.14-3522.89,2288.57z M-3537.34,2294.11
			l-283.95-0.64c-2.02,0-3.91-1.01-5.04-2.69l-4.01-5.95h0.12l-192.93-286.18l-58.25-86.4l-0.09,0.06l-52.54-77.93l-280.13-415.5
			c-2.17-3.22,0.14-7.55,4.02-7.54l271.47,0.6c6.31,0.01,12.2,3.16,15.73,8.39l69.59,103.22l-0.03,0.02l269.8,400.18h0.04
			l247.74,367.47C-3534.98,2292.46-3535.86,2294.11-3537.34,2294.11z"/>
		<linearGradient id="SVGID_22_" gradientUnits="userSpaceOnUse" x1="-4086.4961" y1="1920.3687" x2="-3653.3086" y2="1920.3687">
			<stop  offset="2.033214e-07" style="stop-color:#1F1D47"/>
			<stop  offset="1" style="stop-color:#333995"/>
		</linearGradient>
		<path class="st22" d="M-4072.89,1622.27l402.99,598.39c1.55,2.3-0.1,5.4-2.87,5.39l-74.64-0.2c-0.29-0.63-0.62-1.24-1.02-1.84
			c-3.93-5.81-11.82-7.34-17.63-3.41c-5.81,3.93-7.34,11.82-3.41,17.63c3.93,5.81,11.82,7.34,17.63,3.41
			c1.45-0.98,2.64-2.21,3.54-3.59l83.55,0.23c9.13,0.02,14.58-10.18,9.48-17.75l-407.36-604.88c2.17-4.03,2.09-9.09-0.65-13.14
			c-3.93-5.81-11.82-7.34-17.63-3.41c-5.81,3.93-7.34,11.82-3.41,17.63C-4081.68,1620.62-4077.26,1622.58-4072.89,1622.27z"/>
	</g>
	<linearGradient id="SVGID_23_" gradientUnits="userSpaceOnUse" x1="-4293.4849" y1="1699.0757" x2="-3786.9617" y2="1699.0757">
		<stop  offset="2.033214e-07" style="stop-color:#1F1D47"/>
		<stop  offset="1" style="stop-color:#333995"/>
	</linearGradient>
	<path class="st23" d="M-4273.67,1454.85c1.72-1.16,3.05-2.68,3.99-4.38l121.75-0.65c1.16-0.01,2.24,0.57,2.88,1.52l334.65,495.7
		c-2.61,4.13-2.7,9.58,0.21,13.89c3.93,5.81,11.82,7.34,17.63,3.41s7.34-11.82,3.41-17.63c-2.45-3.63-6.45-5.58-10.52-5.59
		l-336.55-498.5c-2.13-3.16-5.7-5.04-9.5-5.02l-123.92,0.66c-0.19-0.35-0.4-0.7-0.63-1.04c-3.93-5.81-11.82-7.34-17.63-3.41
		c-5.81,3.93-7.34,11.82-3.41,17.63C-4287.38,1457.25-4279.49,1458.78-4273.67,1454.85z"/>
</g>
<g>
	<path class="st0" d="M-4290.98,87.62l463.4,688.09c-2.47,4.1-2.51,9.43,0.35,13.66c3.93,5.81,11.82,7.34,17.63,3.41
		c5.81-3.93,7.34-11.82,3.41-17.63c-2.51-3.71-6.64-5.67-10.81-5.58l-460.13-683.25c-1.55-2.3,0.1-5.4,2.87-5.39l109.33,0.3
		c1.15,0.01,2.21,0.58,2.86,1.53l36.34,53.95c-2.13,4.02-2.04,9.04,0.69,13.07c3.93,5.81,11.82,7.34,17.63,3.41
		c5.81-3.93,7.34-11.82,3.41-17.63c-2.65-3.93-7.12-5.89-11.53-5.54l-37.68-55.96c-2.12-3.13-5.64-5.02-9.42-5.03l-112.63-0.31
		l-7.01-0.02c-9.14-0.02-14.58,10.18-9.47,17.75L-4290.98,87.62z"/>
	<path class="st0" d="M-4155.56,224.82l381.73,566.99c1.14,1.69,3.03,2.69,5.07,2.69h0.07l36.83-0.47
		c9.06-0.11,14.36-10.24,9.3-17.75l-66.62-98.94c1.94-3.95,1.78-8.8-0.87-12.71c-3.93-5.81-11.82-7.34-17.63-3.41
		s-7.34,11.82-3.41,17.63c2.73,4.04,7.39,6.01,11.92,5.51l62.07,92.19c1.54,2.28-0.07,5.35-2.82,5.39l-23.75,0.31
		c-1.17,0.02-2.26-0.56-2.91-1.53l-378.28-561.86c2.57-4.13,2.65-9.54-0.25-13.83c-3.93-5.81-11.82-7.34-17.63-3.41
		c-5.81,3.93-7.34,11.82-3.41,17.63C-4163.69,222.88-4159.66,224.84-4155.56,224.82z"/>
	<g>
		<path class="st0" d="M-3744.55,618.09c1.83-3.91,1.63-8.66-0.96-12.5c-3.93-5.81-11.82-7.34-17.63-3.41
			c-5.81,3.93-7.34,11.82-3.41,17.63c2.78,4.11,7.53,6.06,12.14,5.47l153.49,227.35c1.55,2.31-0.11,5.42-2.9,5.39l-196.71-1.73
			c-1.13-0.01-2.2-0.58-2.83-1.52l-500.01-740.64c1.91-3.94,1.74-8.77-0.89-12.66c-3.93-5.81-11.82-7.34-17.63-3.41
			c-5.81,3.93-7.34,11.82-3.41,17.63c2.74,4.06,7.42,6.02,11.97,5.5l502.68,744.57c0.56,0.84,1.31,1.51,2.16,1.96
			c0.86,0.46,1.82,0.72,2.83,0.72l209.86,1.85c9.17,0.08,14.67-10.16,9.54-17.77L-3744.55,618.09z"/>
		<path class="st0" d="M-4198.79,161.82c-2.29,4.06-2.26,9.23,0.52,13.35c3.93,5.81,11.82,7.34,17.63,3.41
			c5.81-3.93,7.34-11.82,3.41-17.63c-2.58-3.82-6.88-5.78-11.17-5.56l-21.98-32.64c-1.55-2.31,0.11-5.41,2.89-5.39l24.07,0.16
			c1.14,0.01,2.21,0.59,2.84,1.53l337.29,500.98c-1.59,3.81-1.29,8.32,1.19,12c3.93,5.81,11.82,7.34,17.63,3.41
			s7.34-11.82,3.41-17.63c-2.88-4.26-7.89-6.21-12.65-5.4l-339.57-504.36c-1.12-1.68-3-2.69-5.02-2.7l-37.2-0.24
			c-9.16-0.07-14.65,10.15-9.53,17.75L-4198.79,161.82z"/>
		<path class="st0" d="M-3522.89,882.7l-304.4-451.51l282.62-415.21c0.25-0.37,0.44-0.76,0.6-1.15l7.55-11.09
			c2.67-3.92-0.13-9.22-4.87-9.24h0l0.32-0.46l-67.32-0.15l0.08-0.12l-233.14-0.51c-3.78-0.01-7.32,1.86-9.44,4.98l-128.03,188.08
			l0.09,0.13l-6.78,9.96l-32.86-48.74l0.03-0.02L-4120.28-3.41c-1.14-1.67-3.02-2.67-5.04-2.68l-295.45-0.66
			c-9.14-0.02-14.58,10.18-9.47,17.76l283.49,420.48l-30.28,44.48l-281.82,414.06c-2.56,3.75,0.13,8.84,4.67,8.85l-0.24,0.36
			l239.17,0.54l0.09-0.12l61.32,0.13c3.78,0.01,7.32-1.86,9.44-4.98l155.75-228.82l42.78,63.45l0.08-0.05l85.01,126.09l-0.08,0.05
			l28.02,41.57c1.13,1.68,3.02,2.69,5.04,2.69l295.43,0.66C-3523.23,900.48-3517.79,890.27-3522.89,882.7z M-3537.34,888.24
			l-283.95-0.64c-2.02,0-3.91-1.01-5.04-2.69l-4.01-5.95h0.12l-192.93-286.18l-58.25-86.4l-0.09,0.06l-52.54-77.93l-280.13-415.5
			c-2.17-3.22,0.14-7.55,4.02-7.54l271.47,0.6c6.31,0.01,12.2,3.16,15.73,8.39l69.59,103.22l-0.03,0.02l269.8,400.18h0.04
			l247.74,367.47C-3534.98,886.59-3535.86,888.25-3537.34,888.24z"/>
		<path class="st0" d="M-4072.89,216.4l402.99,598.39c1.55,2.3-0.1,5.4-2.87,5.39l-74.64-0.2c-0.29-0.63-0.62-1.24-1.02-1.84
			c-3.93-5.81-11.82-7.34-17.63-3.41c-5.81,3.93-7.34,11.82-3.41,17.63c3.93,5.81,11.82,7.34,17.63,3.41
			c1.45-0.98,2.64-2.21,3.54-3.59l83.55,0.23c9.13,0.02,14.58-10.18,9.48-17.75l-407.36-604.88c2.17-4.03,2.09-9.09-0.65-13.14
			c-3.93-5.81-11.82-7.34-17.63-3.41c-5.81,3.93-7.34,11.82-3.41,17.63C-4081.68,214.75-4077.26,216.71-4072.89,216.4z"/>
	</g>
	<path class="st0" d="M-4273.67,48.98c1.72-1.16,3.05-2.68,3.99-4.38l121.75-0.65c1.16-0.01,2.24,0.57,2.88,1.52l334.65,495.7
		c-2.61,4.13-2.7,9.58,0.21,13.89c3.93,5.81,11.82,7.34,17.63,3.41c5.81-3.93,7.34-11.82,3.41-17.63
		c-2.45-3.63-6.45-5.58-10.52-5.59l-336.55-498.5c-2.13-3.16-5.7-5.04-9.5-5.02l-123.92,0.66c-0.19-0.35-0.4-0.7-0.63-1.04
		c-3.93-5.81-11.82-7.34-17.63-3.41c-5.81,3.93-7.34,11.82-3.41,17.63C-4287.38,51.38-4279.49,52.91-4273.67,48.98z"/>
</g>
<g>
	<linearGradient id="SVGID_24_" gradientUnits="userSpaceOnUse" x1="1145.6918" y1="2215.7527" x2="1916.5808" y2="2215.7527">
		<stop  offset="3.090118e-07" style="stop-color:#1F1D47"/>
		<stop  offset="1" style="stop-color:#333995"/>
	</linearGradient>
	<path class="st24" d="M1750.36,2355.77c1.9-4.06,1.69-8.98-1-12.97c-4.07-6.03-12.26-7.61-18.29-3.54
		c-6.03,4.07-7.61,12.26-3.54,18.29c2.88,4.26,7.81,6.29,12.59,5.68l159.22,235.83c1.61,2.4-0.12,5.62-3,5.6l-204.04-1.79
		c-1.17-0.01-2.28-0.6-2.94-1.58l-518.65-768.25c1.98-4.09,1.81-9.09-0.92-13.13c-4.07-6.03-12.26-7.61-18.29-3.54
		c-6.03,4.07-7.61,12.26-3.54,18.29c2.84,4.21,7.7,6.24,12.42,5.7l521.42,772.33c0.58,0.87,1.36,1.56,2.25,2.03
		c0.89,0.48,1.89,0.74,2.94,0.75l217.68,1.92c9.51,0.08,15.22-10.54,9.89-18.43L1750.36,2355.77z"/>
	<linearGradient id="SVGID_25_" gradientUnits="userSpaceOnUse" x1="1179.8613" y1="2162.5647" x2="1687.8315" y2="2162.5647">
		<stop  offset="3.090118e-07" style="stop-color:#1F1D47"/>
		<stop  offset="1" style="stop-color:#333995"/>
	</linearGradient>
	<path class="st25" d="M1182.71,1805.52l480.67,713.74c-2.56,4.26-2.6,9.78,0.36,14.17c4.07,6.03,12.26,7.61,18.29,3.54
		c6.03-4.07,7.61-12.26,3.54-18.29c-2.6-3.85-6.89-5.88-11.22-5.78l-477.29-708.72c-1.61-2.39,0.1-5.6,2.98-5.6l113.41,0.31
		c1.19,0.01,2.3,0.6,2.96,1.59l37.69,55.96c-2.21,4.16-2.11,9.38,0.71,13.56c4.07,6.03,12.26,7.61,18.29,3.54
		c6.03-4.07,7.61-12.26,3.54-18.29c-2.75-4.07-7.38-6.11-11.96-5.75l-39.09-58.05c-2.19-3.25-5.85-5.21-9.77-5.22l-116.83-0.32
		l-7.28-0.02c-9.48-0.03-15.12,10.56-9.82,18.42L1182.71,1805.52z"/>
	<linearGradient id="SVGID_26_" gradientUnits="userSpaceOnUse" x1="1249.9338" y1="2099.8435" x2="1673.2611" y2="2099.8435">
		<stop  offset="3.090118e-07" style="stop-color:#1F1D47"/>
		<stop  offset="1" style="stop-color:#333995"/>
	</linearGradient>
	<path class="st26" d="M1270.16,1836.37l24.97,0.17c1.18,0.01,2.29,0.61,2.95,1.59l349.87,519.65c-1.65,3.96-1.34,8.63,1.24,12.45
		c4.07,6.03,12.26,7.61,18.29,3.54c6.03-4.07,7.61-12.26,3.54-18.29c-2.99-4.42-8.18-6.44-13.12-5.6l-352.23-523.16
		c-1.16-1.74-3.11-2.79-5.21-2.8l-38.59-0.25c-9.5-0.07-15.19,10.53-9.88,18.42l27.21,40.42c-2.38,4.21-2.35,9.57,0.54,13.85
		c4.07,6.03,12.26,7.61,18.29,3.54c6.03-4.07,7.61-12.26,3.54-18.29c-2.68-3.96-7.14-5.99-11.59-5.77l-22.8-33.86
		C1265.55,1839.57,1267.27,1836.36,1270.16,1836.37z"/>
	<linearGradient id="SVGID_27_" gradientUnits="userSpaceOnUse" x1="1017.6864" y1="2178.1541" x2="1982.3136" y2="2178.1541">
		<stop  offset="3.090118e-07" style="stop-color:#1F1D47"/>
		<stop  offset="1" style="stop-color:#333995"/>
	</linearGradient>
	<path class="st27" d="M1980.27,2630.24l-310.04-459.89l13.93-20.26l249.87-363.36l44.45-64.63l1.87-2.72
		c2.76-4.07-0.14-9.57-5.06-9.58l0.33-0.48l-69.82-0.16l0.08-0.13l-241.83-0.52c-3.92-0.01-7.59,1.92-9.79,5.17l-17.2,25.27
		c-0.75,0.65-1.43,1.41-2,2.25l-127.71,187.61l-6.43-9.54l-34.69-51.45l0.03-0.02l-105.63-156.7c-1.18-1.73-3.13-2.77-5.23-2.78
		l-306.46-0.69c-9.48-0.02-15.12,10.56-9.82,18.42l294.07,436.16l5.51,8.18l0.28,0.41l0,0.01l-0.95-1.41l-12.74,18.72l-14.22,20.89
		l-292.33,429.5c-2.65,3.89,0.14,9.17,4.84,9.17l-0.25,0.37l248.09,0.56l0.09-0.13l63.6,0.14c3.92,0.02,7.6-1.92,9.8-5.17
		L1502,2412.65l-2.17-3.22l0,0l41.7,61.85l0.08-0.05l88.18,130.79l-0.08,0.05l29.07,43.12c1.17,1.74,3.13,2.79,5.23,2.79
		l306.44,0.69C1979.93,2648.69,1985.57,2638.1,1980.27,2630.24z M1965.29,2636l-294.54-0.66c-2.1,0-4.06-1.05-5.23-2.79l-4.16-6.17
		h0.12l-200.12-296.85l-60.42-89.62l-0.09,0.06l-54.5-80.83l-290.57-430.98c-2.25-3.34,0.15-7.83,4.17-7.82l281.59,0.62
		c6.54,0.01,12.65,3.27,16.31,8.7l72.19,107.07l-0.03,0.02l279.86,415.1h0.04l256.98,381.17
		C1967.73,2634.29,1966.82,2636,1965.29,2636z"/>
	<linearGradient id="SVGID_28_" gradientUnits="userSpaceOnUse" x1="1309.9263" y1="2230.1287" x2="1774.3566" y2="2230.1287">
		<stop  offset="3.090118e-07" style="stop-color:#1F1D47"/>
		<stop  offset="1" style="stop-color:#333995"/>
	</linearGradient>
	<path class="st28" d="M1323.18,1947.84l395.96,588.12c1.18,1.76,3.15,2.79,5.26,2.79h0.08l38.2-0.49
		c9.39-0.12,14.9-10.62,9.65-18.42l-69.1-102.63c2.01-4.1,1.84-9.13-0.9-13.19c-4.07-6.03-12.26-7.61-18.29-3.54
		c-6.03,4.07-7.61,12.26-3.54,18.29c2.83,4.19,7.66,6.23,12.37,5.71l64.38,95.63c1.6,2.36-0.08,5.55-2.93,5.59l-24.64,0.32
		c-1.22,0.02-2.35-0.58-3.02-1.59l-392.38-582.8c2.67-4.28,2.75-9.9-0.26-14.34c-4.07-6.03-12.26-7.61-18.29-3.54
		c-6.03,4.07-7.61,12.26-3.54,18.29C1314.74,1945.83,1318.93,1947.86,1323.18,1947.84z"/>
	<linearGradient id="SVGID_29_" gradientUnits="userSpaceOnUse" x1="1395.6626" y1="2248.3215" x2="1844.9978" y2="2248.3215">
		<stop  offset="3.090118e-07" style="stop-color:#1F1D47"/>
		<stop  offset="1" style="stop-color:#333995"/>
	</linearGradient>
	<path class="st29" d="M1419.75,1918.6c-4.07-6.03-12.26-7.61-18.29-3.54c-6.03,4.07-7.61,12.26-3.54,18.29
		c2.73,4.04,7.32,6.07,11.86,5.75l418.02,620.7c1.61,2.39-0.1,5.6-2.98,5.6l-77.42-0.21c-0.3-0.65-0.64-1.29-1.05-1.9
		c-4.07-6.03-12.26-7.61-18.29-3.54c-6.03,4.07-7.61,12.26-3.54,18.29c4.07,6.03,12.26,7.61,18.29,3.54
		c1.51-1.02,2.73-2.29,3.67-3.73l86.66,0.24c9.47,0.03,15.12-10.56,9.83-18.42l-422.55-627.43
		C1422.67,1928.06,1422.59,1922.81,1419.75,1918.6z"/>
	<linearGradient id="SVGID_30_" gradientUnits="userSpaceOnUse" x1="1180.1138" y1="2018.7795" x2="1705.5188" y2="2018.7795">
		<stop  offset="3.090118e-07" style="stop-color:#1F1D47"/>
		<stop  offset="1" style="stop-color:#333995"/>
	</linearGradient>
	<path class="st30" d="M1200.66,1765.45c1.78-1.21,3.17-2.78,4.14-4.54l126.29-0.68c1.2-0.01,2.32,0.59,2.99,1.58l347.13,514.17
		c-2.7,4.29-2.8,9.94,0.22,14.41c4.07,6.03,12.26,7.61,18.29,3.54c6.03-4.07,7.61-12.26,3.54-18.29c-2.54-3.76-6.69-5.79-10.91-5.8
		l-349.1-517.08c-2.21-3.27-5.91-5.22-9.86-5.21l-128.54,0.69c-0.2-0.37-0.41-0.73-0.65-1.08c-4.07-6.03-12.26-7.61-18.29-3.54
		c-6.03,4.07-7.61,12.26-3.54,18.29C1186.45,1767.94,1194.64,1769.53,1200.66,1765.45z"/>
</g>
<g>
	<path class="st0" d="M1750.36,927.62c1.9-4.06,1.69-8.98-1-12.97c-4.07-6.03-12.26-7.61-18.29-3.54
		c-6.03,4.07-7.61,12.26-3.54,18.29c2.88,4.26,7.81,6.29,12.59,5.68l159.22,235.83c1.61,2.4-0.12,5.62-3,5.6l-204.04-1.79
		c-1.17-0.01-2.28-0.6-2.94-1.58L1170.7,404.89c1.98-4.09,1.81-9.09-0.92-13.13c-4.07-6.03-12.26-7.61-18.29-3.54
		c-6.03,4.07-7.61,12.26-3.54,18.29c2.84,4.21,7.7,6.24,12.42,5.7l521.42,772.33c0.58,0.87,1.36,1.56,2.25,2.03
		c0.89,0.48,1.89,0.74,2.94,0.75l217.68,1.92c9.51,0.08,15.22-10.54,9.89-18.43L1750.36,927.62z"/>
	<path class="st0" d="M1182.71,377.37l480.67,713.74c-2.56,4.26-2.6,9.78,0.36,14.17c4.07,6.03,12.26,7.61,18.29,3.54
		c6.03-4.07,7.61-12.26,3.54-18.29c-2.6-3.85-6.89-5.88-11.22-5.78l-477.29-708.72c-1.61-2.39,0.1-5.6,2.98-5.6l113.41,0.31
		c1.19,0.01,2.3,0.6,2.96,1.59l37.69,55.96c-2.21,4.16-2.11,9.38,0.71,13.56c4.07,6.03,12.26,7.61,18.29,3.54
		c6.03-4.07,7.61-12.26,3.54-18.29c-2.75-4.07-7.38-6.11-11.96-5.75l-39.09-58.05c-2.19-3.25-5.85-5.21-9.77-5.22L1199,357.76
		l-7.28-0.02c-9.48-0.03-15.12,10.56-9.82,18.42L1182.71,377.37z"/>
	<path class="st0" d="M1270.16,408.22l24.97,0.17c1.18,0.01,2.29,0.61,2.95,1.59l349.87,519.65c-1.65,3.96-1.34,8.63,1.24,12.45
		c4.07,6.03,12.26,7.61,18.29,3.54c6.03-4.07,7.61-12.26,3.54-18.29c-2.99-4.42-8.18-6.44-13.12-5.6l-352.23-523.16
		c-1.16-1.74-3.11-2.79-5.21-2.8l-38.59-0.25c-9.5-0.07-15.19,10.53-9.88,18.42l27.21,40.42c-2.38,4.21-2.35,9.57,0.54,13.85
		c4.07,6.03,12.26,7.61,18.29,3.54c6.03-4.07,7.61-12.26,3.54-18.29c-2.68-3.96-7.14-5.99-11.59-5.77l-22.8-33.86
		C1265.55,411.42,1267.27,408.2,1270.16,408.22z"/>
	<path class="st0" d="M1980.27,1202.09L1670.23,742.2l13.93-20.26l249.87-363.36l44.45-64.63l1.87-2.72
		c2.76-4.07-0.14-9.57-5.06-9.58l0.33-0.48l-69.82-0.16l0.08-0.13l-241.83-0.52c-3.92-0.01-7.59,1.92-9.79,5.17l-17.2,25.27
		c-0.75,0.65-1.43,1.41-2,2.25l-127.71,187.61l-6.43-9.54l-34.69-51.45l0.03-0.02l-105.63-156.7c-1.18-1.73-3.13-2.77-5.23-2.78
		l-306.46-0.69c-9.48-0.02-15.12,10.56-9.82,18.42l294.07,436.16l5.51,8.18l0.28,0.41l0,0.01l-0.95-1.41l-12.74,18.72l-14.22,20.89
		l-292.33,429.5c-2.65,3.89,0.14,9.17,4.84,9.17l-0.25,0.37l248.09,0.56l0.09-0.13l63.6,0.14c3.92,0.02,7.6-1.92,9.8-5.17
		L1502,984.5l-2.17-3.22l0,0l41.7,61.85l0.08-0.05l88.18,130.79l-0.08,0.06l29.07,43.12c1.17,1.74,3.13,2.79,5.23,2.79l306.44,0.69
		C1979.93,1220.53,1985.57,1209.95,1980.27,1202.09z M1965.29,1207.84l-294.54-0.66c-2.1,0-4.06-1.05-5.23-2.79l-4.16-6.17h0.12
		l-200.12-296.85l-60.42-89.62l-0.09,0.06l-54.5-80.83L1055.78,300c-2.25-3.34,0.15-7.83,4.17-7.82l281.59,0.62
		c6.54,0.01,12.65,3.27,16.31,8.7l72.19,107.07l-0.03,0.02l279.86,415.1h0.04l256.98,381.17
		C1967.73,1206.13,1966.82,1207.85,1965.29,1207.84z"/>
	<path class="st0" d="M1323.18,519.69l395.96,588.12c1.18,1.76,3.15,2.79,5.26,2.79h0.08l38.2-0.49c9.39-0.12,14.9-10.62,9.65-18.42
		l-69.1-102.63c2.01-4.1,1.84-9.13-0.9-13.19c-4.07-6.03-12.26-7.61-18.29-3.54c-6.03,4.07-7.61,12.26-3.54,18.29
		c2.83,4.19,7.66,6.23,12.37,5.71l64.38,95.63c1.6,2.36-0.08,5.55-2.93,5.59l-24.64,0.32c-1.22,0.02-2.35-0.58-3.02-1.59
		l-392.38-582.8c2.67-4.28,2.75-9.9-0.26-14.34c-4.07-6.03-12.26-7.61-18.29-3.54c-6.03,4.07-7.61,12.26-3.54,18.29
		C1314.74,517.68,1318.93,519.71,1323.18,519.69z"/>
	<path class="st0" d="M1419.75,490.45c-4.07-6.03-12.26-7.61-18.29-3.54c-6.03,4.07-7.61,12.26-3.54,18.29
		c2.73,4.04,7.32,6.07,11.86,5.75l418.02,620.7c1.61,2.39-0.1,5.6-2.98,5.6l-77.42-0.21c-0.3-0.65-0.64-1.29-1.05-1.9
		c-4.07-6.03-12.26-7.61-18.29-3.54c-6.03,4.07-7.61,12.26-3.54,18.29c4.07,6.03,12.26,7.61,18.29,3.54
		c1.51-1.02,2.73-2.29,3.67-3.73l86.66,0.24c9.47,0.03,15.12-10.56,9.83-18.42l-422.55-627.43
		C1422.67,499.91,1422.59,494.66,1419.75,490.45z"/>
	<path class="st0" d="M1200.66,337.3c1.78-1.21,3.17-2.78,4.14-4.54l126.29-0.68c1.2-0.01,2.32,0.59,2.99,1.58l347.13,514.17
		c-2.7,4.29-2.8,9.94,0.22,14.41c4.07,6.03,12.26,7.61,18.29,3.54c6.03-4.07,7.61-12.26,3.54-18.29c-2.54-3.76-6.69-5.79-10.91-5.8
		l-349.1-517.08c-2.21-3.27-5.91-5.22-9.86-5.21l-128.54,0.69c-0.2-0.37-0.41-0.73-0.65-1.08c-4.07-6.03-12.26-7.61-18.29-3.54
		c-6.03,4.07-7.61,12.26-3.54,18.29C1186.45,339.79,1194.64,341.37,1200.66,337.3z"/>
</g>
<rect x="322.23" y="1814.11" class="st31" width="204.67" height="204.67"/>
<rect x="322.23" y="2147.67" class="st32" width="204.67" height="204.67"/>
</svg>
