<?xml version="1.0" encoding="utf-8"?>
<!-- Generator: Adobe Illustrator 23.0.1, SVG Export Plug-In . SVG Version: 6.00 Build 0)  -->
<svg version="1.1" id="Layer_1" xmlns="http://www.w3.org/2000/svg" xmlns:xlink="http://www.w3.org/1999/xlink" x="0px" y="0px"
	 viewBox="0 0 3000 3000" style="enable-background:new 0 0 3000 3000;" xml:space="preserve">
<g>
	<path d="M1881.44,1747.02c3.17-6.77,2.82-14.98-1.67-21.63c-6.79-10.05-20.45-12.69-30.5-5.9c-10.05,6.79-12.69,20.45-5.9,30.5
		c4.8,7.11,13.03,10.49,21,9.47l265.56,393.33c2.69,4-0.2,9.38-5.01,9.33l-340.32-2.98c-1.96-0.01-3.8-1-4.9-2.63L914.63,875.15
		c3.31-6.82,3.01-15.17-1.54-21.9c-6.79-10.05-20.45-12.69-30.5-5.9c-10.05,6.79-12.69,20.45-5.9,30.5
		c4.74,7.02,12.84,10.41,20.71,9.51l869.67,1288.17c0.97,1.45,2.27,2.6,3.74,3.39c1.49,0.8,3.15,1.24,4.9,1.25l363.07,3.2
		c15.86,0.14,25.38-17.58,16.5-30.74L1881.44,1747.02z"/>
	<path d="M934.66,829.26l801.71,1190.45c-4.27,7.1-4.34,16.31,0.6,23.63c6.79,10.05,20.45,12.69,30.5,5.9
		c10.05-6.79,12.69-20.45,5.9-30.5c-4.34-6.43-11.49-9.81-18.71-9.65L958.6,827.01c-2.69-3.98,0.17-9.35,4.97-9.33l189.16,0.52
		c1.98,0.01,3.83,1,4.94,2.65l62.86,93.34c-3.69,6.95-3.52,15.65,1.19,22.62c6.79,10.05,20.45,12.69,30.5,5.9
		c10.05-6.79,12.69-20.45,5.9-30.5c-4.59-6.79-12.32-10.19-19.95-9.59l-65.2-96.82c-3.66-5.42-9.76-8.69-16.3-8.7l-194.86-0.54
		l-12.13-0.03c-15.81-0.04-25.23,17.61-16.39,30.72L934.66,829.26z"/>
	<path d="M1080.51,880.71l41.64,0.28c1.97,0.01,3.81,1.01,4.91,2.65l583.54,866.72c-2.75,6.6-2.24,14.4,2.06,20.77
		c6.79,10.05,20.45,12.69,30.5,5.9c10.05-6.79,12.69-20.45,5.9-30.5c-4.98-7.37-13.65-10.74-21.88-9.34l-587.49-872.58
		c-1.94-2.9-5.19-4.65-8.69-4.67l-64.36-0.42c-15.85-0.11-25.34,17.57-16.48,30.72l45.38,67.41c-3.96,7.02-3.92,15.97,0.91,23.11
		c6.79,10.05,20.45,12.69,30.5,5.9c10.05-6.79,12.69-20.45,5.9-30.5c-4.47-6.61-11.9-9.99-19.33-9.62l-38.02-56.48
		C1072.83,886.05,1075.7,880.68,1080.51,880.71z"/>
	<path d="M2264.91,2204.81l-517.12-767.05l23.23-33.79l416.76-606.05l74.13-107.8l3.13-4.53c4.6-6.79-0.24-15.96-8.43-15.98
		l0.55-0.8l-116.46-0.27l0.14-0.21l-403.36-0.87c-6.53-0.01-12.66,3.21-16.33,8.62l-28.69,42.15c-1.25,1.08-2.38,2.35-3.34,3.76
		l-213.01,312.91l-10.72-15.91l-57.86-85.81l0.05-0.03L1231.4,671.78c-1.96-2.89-5.23-4.62-8.72-4.63L711.53,666
		c-15.81-0.04-25.22,17.62-16.39,30.73l490.47,727.48l9.19,13.64l0.46,0.69l0,0.01l-1.59-2.35l-21.26,31.22l-23.72,34.84
		l-487.58,716.36c-4.42,6.49,0.23,15.29,8.08,15.3l-0.42,0.62l413.79,0.93l0.15-0.21l106.09,0.23c6.55,0.03,12.67-3.21,16.34-8.62
		l262.05-384.98l-3.62-5.37l0,0l69.56,103.16l0.13-0.09l147.07,218.14l-0.14,0.09l48.48,71.92c1.95,2.91,5.22,4.65,8.72,4.66
		l511.11,1.14C2264.34,2235.57,2273.75,2217.92,2264.91,2204.81z M2239.91,2214.41l-491.26-1.1c-3.5-0.01-6.76-1.75-8.72-4.65
		l-6.94-10.3h0.21l-333.79-495.11l-100.78-149.47l-0.15,0.1l-90.9-134.82L722.95,700.22c-3.75-5.56,0.25-13.06,6.96-13.04
		l469.66,1.04c10.91,0.02,21.11,5.46,27.21,14.51l120.4,178.58l-0.06,0.04l466.77,692.35h0.07l428.62,635.75
		C2244,2211.55,2242.47,2214.41,2239.91,2214.41z"/>
	<path d="M1168.94,1066.63l660.43,980.93c1.97,2.93,5.25,4.66,8.77,4.66h0.13l63.71-0.82c15.67-0.2,24.85-17.71,16.09-30.72
		l-115.26-171.18c3.36-6.84,3.07-15.23-1.5-21.99c-6.79-10.05-20.45-12.69-30.5-5.9c-10.05,6.79-12.69,20.45-5.9,30.5
		c4.73,7,12.78,10.39,20.63,9.53l107.38,159.49c2.66,3.94-0.13,9.26-4.88,9.32l-41.09,0.53c-2.03,0.03-3.91-0.97-5.04-2.65
		l-654.45-972.06c4.45-7.14,4.58-16.51-0.43-23.92c-6.79-10.05-20.45-12.69-30.5-5.9c-10.05,6.79-12.69,20.45-5.9,30.5
		C1154.88,1063.28,1161.85,1066.67,1168.94,1066.63z"/>
	<path d="M1330.01,1017.87c-6.79-10.05-20.45-12.69-30.5-5.9c-10.05,6.79-12.69,20.45-5.9,30.5c4.56,6.74,12.2,10.13,19.78,9.59
		l697.21,1035.26c2.69,3.98-0.17,9.35-4.97,9.33l-129.14-0.35c-0.5-1.09-1.07-2.15-1.76-3.18c-6.79-10.05-20.45-12.69-30.5-5.9
		c-10.05,6.79-12.69,20.45-5.9,30.5c6.79,10.05,20.45,12.69,30.5,5.9c2.51-1.7,4.56-3.82,6.12-6.22l144.54,0.4
		c15.79,0.04,25.23-17.61,16.4-30.72l-704.76-1046.49C1334.89,1033.64,1334.75,1024.88,1330.01,1017.87z"/>
	<path d="M964.6,762.43c2.98-2.01,5.28-4.63,6.91-7.58l210.64-1.13c2-0.01,3.87,0.99,4.98,2.63l578.97,857.59
		c-4.51,7.15-4.67,16.58,0.37,24.03c6.79,10.05,20.45,12.69,30.5,5.9c10.05-6.79,12.69-20.45,5.9-30.5
		c-4.24-6.27-11.15-9.66-18.2-9.67l-582.26-862.44c-3.69-5.46-9.85-8.71-16.44-8.69l-214.39,1.15c-0.33-0.61-0.69-1.21-1.09-1.8
		c-6.79-10.05-20.45-12.69-30.5-5.9c-10.05,6.79-12.69,20.45-5.9,30.5C940.89,766.58,954.55,769.22,964.6,762.43z"/>
</g>
</svg>
