<?xml version="1.0" encoding="utf-8"?>
<!-- Generator: Adobe Illustrator 23.0.1, SVG Export Plug-In . SVG Version: 6.00 Build 0)  -->
<svg version="1.1" id="Layer_1" xmlns="http://www.w3.org/2000/svg" xmlns:xlink="http://www.w3.org/1999/xlink" x="0px" y="0px"
	 viewBox="0 0 3000 3000" style="enable-background:new 0 0 3000 3000;" xml:space="preserve">
<style type="text/css">
	.st0{fill:url(#SVGID_1_);}
	.st1{fill:url(#SVGID_2_);}
	.st2{fill:url(#SVGID_3_);}
	.st3{fill:url(#SVGID_4_);}
	.st4{fill:url(#SVGID_5_);}
	.st5{fill:url(#SVGID_6_);}
	.st6{fill:url(#SVGID_7_);}
</style>
<g>
	<linearGradient id="SVGID_1_" gradientUnits="userSpaceOnUse" x1="872.5222" y1="1538.84" x2="2164.6343" y2="1538.84">
		<stop  offset="3.090118e-07" style="stop-color:#1F1D47"/>
		<stop  offset="1" style="stop-color:#333994"/>
	</linearGradient>
	<path class="st0" d="M1886,1773.5c3.2-6.8,2.8-15.1-1.7-21.7c-6.8-10.1-20.6-12.8-30.7-5.9c-10.1,6.8-12.8,20.6-5.9,30.7
		c4.8,7.1,13.1,10.5,21.1,9.5l266.9,395.3c2.7,4-0.2,9.4-5,9.4l-342-3c-2,0-3.8-1-4.9-2.6L914.4,897.4c3.3-6.9,3-15.2-1.5-22
		c-6.8-10.1-20.6-12.8-30.7-5.9c-10.1,6.8-12.8,20.6-5.9,30.7c4.8,7.1,12.9,10.5,20.8,9.6l874,1294.5c1,1.5,2.3,2.6,3.8,3.4
		c1.5,0.8,3.2,1.2,4.9,1.3l364.9,3.2c15.9,0.1,25.5-17.7,16.6-30.9L1886,1773.5z"/>
	<linearGradient id="SVGID_2_" gradientUnits="userSpaceOnUse" x1="929.795" y1="1449.6899" x2="1781.2205" y2="1449.6899">
		<stop  offset="3.090118e-07" style="stop-color:#1F1D47"/>
		<stop  offset="1" style="stop-color:#333994"/>
	</linearGradient>
	<path class="st1" d="M934.6,851.2l805.7,1196.3c-4.3,7.1-4.4,16.4,0.6,23.7c6.8,10.1,20.6,12.8,30.7,5.9
		c10.1-6.8,12.8-20.6,5.9-30.7c-4.4-6.5-11.5-9.9-18.8-9.7L958.6,849c-2.7-4,0.2-9.4,5-9.4l190.1,0.5c2,0,3.8,1,5,2.7l63.2,93.8
		c-3.7,7-3.5,15.7,1.2,22.7c6.8,10.1,20.6,12.8,30.7,5.9c10.1-6.8,12.8-20.6,5.9-30.7c-4.6-6.8-12.4-10.2-20-9.6l-65.5-97.3
		c-3.7-5.4-9.8-8.7-16.4-8.7l-195.8-0.5l-12.2,0c-15.9,0-25.4,17.7-16.5,30.9L934.6,851.2z"/>
	<linearGradient id="SVGID_3_" gradientUnits="userSpaceOnUse" x1="1047.2457" y1="1344.5609" x2="1756.7983" y2="1344.5609">
		<stop  offset="3.090118e-07" style="stop-color:#1F1D47"/>
		<stop  offset="1" style="stop-color:#333994"/>
	</linearGradient>
	<path class="st2" d="M1081.1,902.9l41.8,0.3c2,0,3.8,1,4.9,2.7l586.4,871c-2.8,6.6-2.3,14.5,2.1,20.9c6.8,10.1,20.6,12.8,30.7,5.9
		c10.1-6.8,12.8-20.6,5.9-30.7c-5-7.4-13.7-10.8-22-9.4l-590.4-876.9c-2-2.9-5.2-4.7-8.7-4.7l-64.7-0.4
		c-15.9-0.1-25.5,17.7-16.6,30.9l45.6,67.7c-4,7.1-3.9,16,0.9,23.2c6.8,10.1,20.6,12.8,30.7,5.9c10.1-6.8,12.8-20.6,5.9-30.7
		c-4.5-6.6-12-10-19.4-9.7l-38.2-56.8C1073.4,908.3,1076.3,902.9,1081.1,902.9z"/>
	<linearGradient id="SVGID_4_" gradientUnits="userSpaceOnUse" x1="657.9684" y1="1475.8197" x2="2274.8113" y2="1475.8197">
		<stop  offset="3.090118e-07" style="stop-color:#1F1D47"/>
		<stop  offset="1" style="stop-color:#333994"/>
	</linearGradient>
	<path class="st3" d="M2271.4,2233.6l-519.7-770.8l23.3-34l418.8-609l74.5-108.3l3.1-4.6c4.6-6.8-0.2-16-8.5-16.1l0.6-0.8l-117-0.3
		l0.1-0.2l-405.3-0.9c-6.6,0-12.7,3.2-16.4,8.7l-28.8,42.4c-1.3,1.1-2.4,2.4-3.4,3.8l-214.1,314.5l-10.8-16l-58.1-86.2l0,0
		l-177-262.6c-2-2.9-5.3-4.6-8.8-4.7l-513.7-1.1c-15.9,0-25.3,17.7-16.5,30.9l492.9,731.1l9.2,13.7l0.5,0.7l0,0l-1.6-2.4l-21.4,31.4
		l-23.8,35l-490,719.9c-4.4,6.5,0.2,15.4,8.1,15.4l-0.4,0.6l415.8,0.9l0.2-0.2l106.6,0.2c6.6,0,12.7-3.2,16.4-8.7l263.3-386.9
		l-3.6-5.4l0,0l69.9,103.7l0.1-0.1l147.8,219.2l-0.1,0.1l48.7,72.3c2,2.9,5.2,4.7,8.8,4.7l513.6,1.1
		C2270.8,2264.5,2280.3,2246.8,2271.4,2233.6z M2246.3,2243.2l-493.7-1.1c-3.5,0-6.8-1.8-8.8-4.7l-7-10.3h0.2l-335.4-497.6
		l-101.3-150.2l-0.2,0.1l-91.3-135.5l-487-722.4c-3.8-5.6,0.2-13.1,7-13.1l472,1c11,0,21.2,5.5,27.3,14.6l121,179.5l-0.1,0
		l469.1,695.8h0.1l430.7,638.9C2250.4,2240.4,2248.8,2243.2,2246.3,2243.2z"/>
	<linearGradient id="SVGID_5_" gradientUnits="userSpaceOnUse" x1="1147.801" y1="1562.936" x2="1926.2477" y2="1562.936">
		<stop  offset="3.090118e-07" style="stop-color:#1F1D47"/>
		<stop  offset="1" style="stop-color:#333994"/>
	</linearGradient>
	<path class="st4" d="M1170,1089.8l663.7,985.8c2,2.9,5.3,4.7,8.8,4.7h0.1l64-0.8c15.7-0.2,25-17.8,16.2-30.9l-115.8-172
		c3.4-6.9,3.1-15.3-1.5-22.1c-6.8-10.1-20.6-12.8-30.7-5.9c-10.1,6.8-12.8,20.6-5.9,30.7c4.8,7,12.8,10.4,20.7,9.6l107.9,160.3
		c2.7,4-0.1,9.3-4.9,9.4l-41.3,0.5c-2,0-3.9-1-5.1-2.7l-657.7-976.9c4.5-7.2,4.6-16.6-0.4-24c-6.8-10.1-20.6-12.8-30.7-5.9
		c-10.1,6.8-12.8,20.6-5.9,30.7C1155.9,1086.4,1162.9,1089.8,1170,1089.8z"/>
	<linearGradient id="SVGID_6_" gradientUnits="userSpaceOnUse" x1="1291.5063" y1="1593.4299" x2="2044.6519" y2="1593.4299">
		<stop  offset="3.090118e-07" style="stop-color:#1F1D47"/>
		<stop  offset="1" style="stop-color:#333994"/>
	</linearGradient>
	<path class="st5" d="M1331.9,1040.8c-6.8-10.1-20.6-12.8-30.7-5.9c-10.1,6.8-12.8,20.6-5.9,30.7c4.6,6.8,12.3,10.2,19.9,9.6
		l700.7,1040.4c2.7,4-0.2,9.4-5,9.4l-129.8-0.4c-0.5-1.1-1.1-2.2-1.8-3.2c-6.8-10.1-20.6-12.8-30.7-5.9
		c-10.1,6.8-12.8,20.6-5.9,30.7c6.8,10.1,20.6,12.8,30.7,5.9c2.5-1.7,4.6-3.8,6.1-6.2l145.3,0.4c15.9,0,25.4-17.7,16.5-30.9
		L1333,1063.6C1336.8,1056.6,1336.6,1047.8,1331.9,1040.8z"/>
	<linearGradient id="SVGID_7_" gradientUnits="userSpaceOnUse" x1="930.2182" y1="1208.687" x2="1810.8666" y2="1208.687">
		<stop  offset="3.090118e-07" style="stop-color:#1F1D47"/>
		<stop  offset="1" style="stop-color:#333994"/>
	</linearGradient>
	<path class="st6" d="M964.7,784.1c3-2,5.3-4.7,6.9-7.6l211.7-1.1c2,0,3.9,1,5,2.6l581.8,861.8c-4.5,7.2-4.7,16.7,0.4,24.2
		c6.8,10.1,20.6,12.8,30.7,5.9c10.1-6.8,12.8-20.6,5.9-30.7c-4.3-6.3-11.2-9.7-18.3-9.7l-585.1-866.7c-3.7-5.5-9.9-8.8-16.5-8.7
		l-215.4,1.2c-0.3-0.6-0.7-1.2-1.1-1.8c-6.8-10.1-20.6-12.8-30.7-5.9c-10.1,6.8-12.8,20.6-5.9,30.7
		C940.8,788.3,954.6,790.9,964.7,784.1z"/>
</g>
</svg>
